<svg width="25" height="9" viewBox="0 0 25 9" fill="none" xmlns="http://www.w3.org/2000/svg">
<path d="M11.2617 4.83984V6.55078H10.5391V2H12.3633C12.8945 2 13.3177 2.13021 13.6328 2.39062C13.9479 2.64844 14.1055 2.99609 14.1055 3.43359C14.1055 3.8763 13.9531 4.22135 13.6484 4.46875C13.3438 4.71615 12.9128 4.83984 12.3555 4.83984H11.2617ZM11.2617 4.24609H12.3633C12.6862 4.24609 12.9362 4.17708 13.1133 4.03906C13.2904 3.90104 13.3789 3.70182 13.3789 3.44141C13.3789 3.19141 13.2904 2.98958 13.1133 2.83594C12.9362 2.67969 12.6927 2.60026 12.3828 2.59766H11.2617V4.24609Z" fill="#33E1ED"/>
<path d="M18.5128 5.46094H16.4816L16.0519 6.55078H15.3136L17.1847 2H17.8331L19.6769 6.55078H18.9425L18.5128 5.46094ZM16.7159 4.87109H18.2823L17.505 2.88281L16.7159 4.87109Z" fill="#33E1ED"/>
<path d="M22.4631 4.26172L23.6819 2H24.4944L22.8147 4.96094V6.55078H22.092V4.91797L20.4358 2H21.2483L22.4631 4.26172Z" fill="#33E1ED"/>
<path d="M2.136 0L3.78 3.444H3.948L5.592 0H7.452L5.412 4.02L7.608 8.28H5.748L3.936 4.572H3.792L1.992 8.28H0.119995L2.316 4.02L0.287995 0H2.136Z" fill="#1E1E2C"/>
</svg>
