<svg width="20" height="8" viewBox="0 0 20 8" fill="none" xmlns="http://www.w3.org/2000/svg">
<path d="M0.895995 6.048C0.783995 6.048 0.661329 6.02134 0.527995 5.968C0.399995 5.90934 0.290662 5.83467 0.199995 5.744C0.109329 5.648 0.0639954 5.544 0.0639954 5.432C0.0639954 5.36267 0.0879954 5.288 0.135995 5.208L1.52 3.072L0.191995 0.944004C0.138662 0.858671 0.111995 0.776004 0.111995 0.696004C0.111995 0.584004 0.154662 0.482671 0.239995 0.392004C0.325329 0.301337 0.429329 0.232004 0.551995 0.184004C0.679995 0.130671 0.802662 0.104004 0.919995 0.104004C1.01066 0.104004 1.08533 0.120004 1.144 0.152004C1.208 0.184004 1.25866 0.237337 1.296 0.312004L2.36 2.168L3.424 0.312004C3.46666 0.237337 3.51733 0.184004 3.576 0.152004C3.64 0.120004 3.71466 0.104004 3.8 0.104004C3.91733 0.104004 4.03733 0.130671 4.16 0.184004C4.288 0.232004 4.39466 0.301337 4.48 0.392004C4.56533 0.482671 4.608 0.584004 4.608 0.696004C4.608 0.776004 4.58133 0.858671 4.528 0.944004L3.2 3.072L4.584 5.208C4.632 5.288 4.656 5.36267 4.656 5.432C4.656 5.544 4.61066 5.648 4.52 5.744C4.42933 5.83467 4.32 5.90934 4.192 5.968C4.064 6.02134 3.94133 6.048 3.824 6.048C3.76 6.048 3.70133 6.03734 3.648 6.016C3.59466 5.99467 3.55466 5.96267 3.528 5.92L2.36 3.936L1.192 5.92C1.16533 5.96267 1.12533 5.99467 1.072 6.016C1.01866 6.03734 0.959995 6.048 0.895995 6.048Z" fill="#33E1ED"/>
<path d="M6.97598 7.736C6.79998 7.736 6.65331 7.696 6.53598 7.616C6.42398 7.536 6.36798 7.448 6.36798 7.352V2.568C6.36798 2.456 6.42398 2.36533 6.53598 2.296C6.65331 2.22667 6.79465 2.192 6.95998 2.192C7.12531 2.192 7.26131 2.22667 7.36798 2.296C7.47465 2.36533 7.52798 2.456 7.52798 2.568V2.752C7.61865 2.59734 7.75731 2.45867 7.94398 2.336C8.13598 2.208 8.35731 2.144 8.60798 2.144C8.87998 2.144 9.12265 2.22134 9.33598 2.376C9.55465 2.52534 9.72531 2.728 9.84798 2.984C9.97598 3.23467 10.04 3.51467 10.04 3.824V4.384C10.04 4.67734 9.97598 4.95467 9.84798 5.216C9.71998 5.472 9.54931 5.68 9.33598 5.84C9.12798 6 8.89865 6.08 8.64798 6.08C8.41331 6.08 8.19998 6.016 8.00798 5.888C7.81598 5.75467 7.68265 5.60534 7.60798 5.44V7.352C7.60798 7.448 7.54665 7.536 7.42398 7.616C7.30131 7.696 7.15198 7.736 6.97598 7.736ZM8.20798 5C8.31465 5 8.41065 4.97067 8.49598 4.912C8.58665 4.85333 8.65865 4.776 8.71198 4.68C8.77065 4.584 8.79998 4.48534 8.79998 4.384V3.824C8.79998 3.72267 8.77331 3.62667 8.71998 3.536C8.66665 3.44534 8.59198 3.37067 8.49598 3.312C8.40531 3.25334 8.30398 3.224 8.19198 3.224C8.09598 3.224 8.00265 3.248 7.91198 3.296C7.82665 3.344 7.75465 3.41333 7.69598 3.504C7.63731 3.58933 7.60798 3.696 7.60798 3.824V4.488C7.60798 4.53067 7.63198 4.59467 7.67998 4.68C7.73331 4.76 7.80531 4.83467 7.89598 4.904C7.98665 4.968 8.09065 5 8.20798 5Z" fill="#1E1E2C"/>
<path d="M12.3136 6.08C12.0363 6.08 11.7963 5.99467 11.5936 5.824C11.3909 5.648 11.2896 5.37867 11.2896 5.016C11.2896 4.70133 11.3696 4.456 11.5296 4.28C11.6896 4.104 11.9083 3.98133 12.1856 3.912C12.4683 3.84267 12.7936 3.808 13.1616 3.808H13.4496V3.728C13.4496 3.63733 13.4309 3.54667 13.3936 3.456C13.3563 3.36534 13.2949 3.29067 13.2096 3.232C13.1243 3.168 13.0043 3.136 12.8496 3.136C12.6309 3.136 12.4683 3.15734 12.3616 3.2C12.2549 3.24267 12.1723 3.288 12.1136 3.336C12.0549 3.37867 11.9883 3.4 11.9136 3.4C11.7803 3.4 11.6763 3.33334 11.6016 3.2C11.5323 3.06667 11.4976 2.928 11.4976 2.784C11.4976 2.656 11.5696 2.544 11.7136 2.448C11.8629 2.352 12.0416 2.27734 12.2496 2.224C12.4629 2.17067 12.6683 2.144 12.8656 2.144C13.3029 2.144 13.6549 2.21867 13.9216 2.368C14.1883 2.51734 14.3829 2.712 14.5056 2.952C14.6283 3.18667 14.6896 3.44 14.6896 3.712V5.616C14.6896 5.72267 14.6309 5.81334 14.5136 5.888C14.4016 5.96267 14.2576 6 14.0816 6C13.9269 6 13.7963 5.96267 13.6896 5.888C13.5829 5.81334 13.5296 5.72267 13.5296 5.616V5.44C13.3856 5.60534 13.2176 5.75467 13.0256 5.888C12.8336 6.016 12.5963 6.08 12.3136 6.08ZM12.8496 5.176C12.9349 5.176 13.0229 5.144 13.1136 5.08C13.2043 5.01067 13.2816 4.92 13.3456 4.808C13.4149 4.696 13.4496 4.57334 13.4496 4.44V4.408H13.4176C13.2683 4.408 13.1243 4.41867 12.9856 4.44C12.8523 4.456 12.7429 4.496 12.6576 4.56C12.5776 4.61867 12.5376 4.712 12.5376 4.84C12.5376 4.95734 12.5669 5.04267 12.6256 5.096C12.6843 5.14933 12.7589 5.176 12.8496 5.176Z" fill="#1E1E2C"/>
<path d="M16.4297 7.736C16.2697 7.736 16.1337 7.70667 16.0217 7.648C15.9151 7.58933 15.8617 7.44267 15.8617 7.208C15.8617 7.06934 15.8831 6.94933 15.9257 6.848C15.9737 6.74667 16.0537 6.696 16.1657 6.696C16.2404 6.696 16.3391 6.688 16.4617 6.672C16.5844 6.66134 16.7097 6.624 16.8377 6.56C16.9711 6.50134 17.0804 6.4 17.1657 6.256C17.2564 6.11733 17.3017 5.92267 17.3017 5.672L15.9017 2.888C15.8751 2.83467 15.8617 2.78133 15.8617 2.728C15.8617 2.62133 15.9097 2.52267 16.0057 2.432C16.1017 2.34134 16.2137 2.26933 16.3417 2.216C16.4751 2.16267 16.5951 2.136 16.7017 2.136C16.7764 2.136 16.8457 2.152 16.9097 2.184C16.9737 2.21067 17.0191 2.26133 17.0457 2.336L17.9497 4.504L18.6137 2.336C18.6404 2.26133 18.6831 2.21067 18.7417 2.184C18.8057 2.152 18.8697 2.136 18.9337 2.136C19.0297 2.136 19.1444 2.16534 19.2777 2.224C19.4164 2.27734 19.5364 2.34933 19.6377 2.44C19.7391 2.53067 19.7897 2.63467 19.7897 2.752C19.7897 2.80534 19.7791 2.85067 19.7577 2.888L18.6217 5.72C18.5204 5.97067 18.4244 6.216 18.3337 6.456C18.2431 6.696 18.1257 6.912 17.9817 7.104C17.8431 7.296 17.6511 7.448 17.4057 7.56C17.1604 7.67734 16.8351 7.736 16.4297 7.736Z" fill="#1E1E2C"/>
</svg>
